<svg width="58" height="58" viewBox="0 0 58 58" fill="none" xmlns="http://www.w3.org/2000/svg">
<g clip-path="url(#clip0_1_470)">
<rect x="1" y="1" width="56" height="56" rx="28" fill="#002629"/>
<path d="M1 12.2H57" stroke="#00474D" stroke-width="0.6"/>
<path d="M45.7998 1L45.7998 57" stroke="#00474D" stroke-width="0.6"/>
<path d="M45.7998 8L45.7998 16.4" stroke="url(#paint0_linear_1_470)" stroke-width="0.6"/>
<path d="M50 12.2L41.6 12.2" stroke="url(#paint1_linear_1_470)" stroke-width="0.6"/>
<path d="M1 45.8H57" stroke="#00474D" stroke-width="0.6"/>
<path d="M12.2002 1L12.2002 57" stroke="#00474D" stroke-width="0.6"/>
<path d="M45.7998 41.6L45.7998 50" stroke="url(#paint2_linear_1_470)" stroke-width="0.6"/>
<path d="M50 45.8L41.6 45.8" stroke="url(#paint3_linear_1_470)" stroke-width="0.6"/>
<path d="M12.2002 41.6L12.2002 50" stroke="url(#paint4_linear_1_470)" stroke-width="0.6"/>
<path d="M16.3999 45.8L7.9999 45.8" stroke="url(#paint5_linear_1_470)" stroke-width="0.6"/>
<path d="M12.2002 8L12.2002 16.4" stroke="url(#paint6_linear_1_470)" stroke-width="0.6"/>
<path d="M16.3999 12.2L7.9999 12.2" stroke="url(#paint7_linear_1_470)" stroke-width="0.6"/>
<path d="M37.0918 31.3257L37.2848 29.4316C37.3878 28.421 37.4558 27.7537 37.4024 27.3332L37.4211 27.3333C38.2931 27.3333 39 26.5871 39 25.6667C39 24.7462 38.2931 24 37.4211 24C36.549 24 35.8421 24.7462 35.8421 25.6667C35.8421 26.083 35.9867 26.4636 36.2258 26.7557C35.8826 26.9793 35.4338 27.4511 34.7584 28.1613L34.7584 28.1613C34.2381 28.7084 33.9779 28.9819 33.6877 29.0243C33.5269 29.0478 33.363 29.0236 33.2145 28.9546C32.9465 28.83 32.7678 28.4919 32.4105 27.8155L30.5268 24.2504C30.3063 23.8332 30.1218 23.484 29.9554 23.2029C30.6379 22.8354 31.1053 22.0864 31.1053 21.2222C31.1053 19.9949 30.1627 19 29 19C27.8373 19 26.8947 19.9949 26.8947 21.2222C26.8947 22.0864 27.3621 22.8354 28.0446 23.2029C27.8782 23.484 27.6937 23.8332 27.4732 24.2504L25.5895 27.8155C25.2322 28.4919 25.0535 28.83 24.7855 28.9546C24.637 29.0236 24.4731 29.0478 24.3123 29.0243C24.0221 28.9819 23.7619 28.7084 23.2416 28.1613C22.5662 27.4511 22.1174 26.9793 21.7742 26.7557C22.0133 26.4636 22.1579 26.083 22.1579 25.6667C22.1579 24.7462 21.451 24 20.5789 24C19.7069 24 19 24.7462 19 25.6667C19 26.5871 19.7069 27.3333 20.5789 27.3333L20.5976 27.3332C20.5442 27.7537 20.6122 28.421 20.7152 29.4316L20.9082 31.3257C21.0153 32.377 21.1044 33.3774 21.2136 34.2778H36.7864C36.8956 33.3774 36.9847 32.377 37.0918 31.3257Z" fill="#66FFF0"/>
<path d="M27.8548 39H30.1452C33.1304 39 34.623 39 35.6189 38.0591C36.0535 37.6484 36.3288 36.908 36.5274 35.9444H21.4726C21.6712 36.908 21.9465 37.6484 22.3811 38.0591C23.377 39 24.8696 39 27.8548 39Z" fill="#66FFF0"/>
</g>
<rect x="0.5" y="0.5" width="57" height="57" rx="28.5" stroke="#00393D"/>
<defs>
<linearGradient id="paint0_linear_1_470" x1="45.7998" y1="16.4" x2="45.7998" y2="8" gradientUnits="userSpaceOnUse">
<stop stop-color="#19FFE9" stop-opacity="0"/>
<stop offset="0.50284" stop-color="#19FFE9"/>
<stop offset="1" stop-color="#19FFE9" stop-opacity="0"/>
</linearGradient>
<linearGradient id="paint1_linear_1_470" x1="41.6" y1="12.2" x2="50" y2="12.2" gradientUnits="userSpaceOnUse">
<stop stop-color="#19FFE9" stop-opacity="0"/>
<stop offset="0.50284" stop-color="#19FFE9"/>
<stop offset="1" stop-color="#19FFE9" stop-opacity="0"/>
</linearGradient>
<linearGradient id="paint2_linear_1_470" x1="45.7998" y1="50" x2="45.7998" y2="41.6" gradientUnits="userSpaceOnUse">
<stop stop-color="#19FFE9" stop-opacity="0"/>
<stop offset="0.50284" stop-color="#19FFE9"/>
<stop offset="1" stop-color="#19FFE9" stop-opacity="0"/>
</linearGradient>
<linearGradient id="paint3_linear_1_470" x1="41.6" y1="45.8" x2="50" y2="45.8001" gradientUnits="userSpaceOnUse">
<stop stop-color="#19FFE9" stop-opacity="0"/>
<stop offset="0.50284" stop-color="#19FFE9"/>
<stop offset="1" stop-color="#19FFE9" stop-opacity="0"/>
</linearGradient>
<linearGradient id="paint4_linear_1_470" x1="12.2002" y1="50" x2="12.2002" y2="41.6" gradientUnits="userSpaceOnUse">
<stop stop-color="#19FFE9" stop-opacity="0"/>
<stop offset="0.50284" stop-color="#19FFE9"/>
<stop offset="1" stop-color="#19FFE9" stop-opacity="0"/>
</linearGradient>
<linearGradient id="paint5_linear_1_470" x1="7.9999" y1="45.8" x2="16.3999" y2="45.8001" gradientUnits="userSpaceOnUse">
<stop stop-color="#19FFE9" stop-opacity="0"/>
<stop offset="0.50284" stop-color="#19FFE9"/>
<stop offset="1" stop-color="#19FFE9" stop-opacity="0"/>
</linearGradient>
<linearGradient id="paint6_linear_1_470" x1="12.2002" y1="16.4" x2="12.2002" y2="8" gradientUnits="userSpaceOnUse">
<stop stop-color="#19FFE9" stop-opacity="0"/>
<stop offset="0.50284" stop-color="#19FFE9"/>
<stop offset="1" stop-color="#19FFE9" stop-opacity="0"/>
</linearGradient>
<linearGradient id="paint7_linear_1_470" x1="7.9999" y1="12.2" x2="16.3999" y2="12.2" gradientUnits="userSpaceOnUse">
<stop stop-color="#19FFE9" stop-opacity="0"/>
<stop offset="0.50284" stop-color="#19FFE9"/>
<stop offset="1" stop-color="#19FFE9" stop-opacity="0"/>
</linearGradient>
<clipPath id="clip0_1_470">
<rect x="1" y="1" width="56" height="56" rx="28" fill="white"/>
</clipPath>
</defs>
</svg>
